<svg width="20" height="20" viewBox="0 0 20 20" fill="none" xmlns="http://www.w3.org/2000/svg">
<path fill-rule="evenodd" clip-rule="evenodd" d="M8.14286 12.814V18.202C8.14286 18.6977 7.73752 19.1 7.2381 19.1H0.904762C0.405333 19.1 0 18.6977 0 18.202V8.28892C0 7.47084 0.374571 6.69675 1.01876 6.18579L7.69138 0.886659C9.01324 -0.162212 10.8915 -0.162212 12.2134 0.886659L18.886 6.18579C19.5302 6.69675 19.9048 7.47084 19.9048 8.28892V18.202C19.9048 18.6977 19.4994 19.1 19 19.1H12.6667C12.1672 19.1 11.7619 18.6977 11.7619 18.202V12.814C11.7619 12.012 10.9793 11.2119 9.95238 11.0287C8.92548 11.2119 8.14286 12.012 8.14286 12.814ZM18.0952 8.28892C18.0952 8.01592 17.9704 7.7582 17.756 7.58758L11.0833 2.28934C10.422 1.76491 9.48281 1.76491 8.82143 2.28934L2.14881 7.58758C1.93438 7.7582 1.80952 8.01592 1.80952 8.28892V17.304H6.33333V12.814C6.33333 11.0224 7.89767 9.48237 9.83476 9.22913C9.91257 9.21925 9.99219 9.21925 10.07 9.22913C12.0071 9.48237 13.5714 11.0224 13.5714 12.814V17.304H18.0952V8.28892Z" fill="#BBBBBB"/>
</svg>
